/* XPM */
static const char * split_xpm[] = {
"16 15 15 1",
" 	c None",
".	c #6992D7",
"+	c #FFFFFF",
"@	c #D2DFF4",
"#	c #C4D5F0",
"$	c #B1C7EB",
"%	c #9AB6E4",
"&	c #FDFEFF",
"*	c #DFE8F7",
"=	c #E5EDF9",
"-	c #F0F5FC",
";	c #DCE6F6",
">	c #F7F9FD",
",	c #FAFCFE",
"'	c #F5F8FD",
"   ........     ",
"   .+@#$%.&.    ",
"   .+*@#$.&&.   ",
"   .+=*@#....   ",
"   .+-=*@#$%.   ",
"   .+.-.;.#..   ",
"    . . . . .   ",
"                ",
"   . . . . .    ",
"   ..>.-.;.#.   ",
"   .+,>'-=;@.   ",
"   .+&,>'-=;.   ",
"   .++&,>'-=.   ",
"   .+++&,>'-.   ",
"   ..........   "};
